<svg xmlns="http://www.w3.org/2000/svg" width="147" height="160"><g fill="none" fill-rule="evenodd" transform="translate(3 4)"><ellipse cx="69" cy="131.5" fill="#F6F7F7" rx="64" ry="18.5"/><g fill-rule="nonzero"><path fill="#FDBE33" d="M108.373 84.06a4.428 4.428 0 0 0-1.266 3.914l6.89 40.276a4.426 4.426 0 0 1-1.753 4.328 4.403 4.403 0 0 1-4.649.336L71.508 113.93a4.414 4.414 0 0 0-4.122 0L31.31 132.914a4.403 4.403 0 0 1-4.648-.336 4.426 4.426 0 0 1-1.754-4.328l6.897-40.294a4.428 4.428 0 0 0-1.266-3.914L1.337 55.536a4.428 4.428 0 0 1-1.113-4.53 4.414 4.414 0 0 1 3.557-3.008l35.964-5.242 1.896-.254 2.492-.366a4.418 4.418 0 0 0 3.321-2.42l8.164-16.594 1.366-2.786 8.51-17.278a4.416 4.416 0 0 1 3.96-2.462c1.679 0 3.212.954 3.958 2.462l8.581 17.432 1.396 2.833 8.063 16.375a4.418 4.418 0 0 0 3.322 2.42l2.25.331 1.903.272 36.198 5.277a4.414 4.414 0 0 1 3.558 3.008 4.428 4.428 0 0 1-1.113 4.53L108.373 84.06z"/><path fill="#FCAE00" d="M68.993 113.41a4.44 4.44 0 0 0-1.596.484L31.31 132.908a4.403 4.403 0 0 1-4.648-.336 4.426 4.426 0 0 1-1.754-4.328l6.897-40.288a4.428 4.428 0 0 0-1.266-3.914L1.337 55.53A4.428 4.428 0 0 1 .224 51a4.414 4.414 0 0 1 3.557-3.008l40.352-5.903a4.418 4.418 0 0 0 3.321-2.42l18.04-36.617a4.351 4.351 0 0 1 4.2-2.462C67.05 11.381 53.126 41.528 67.78 63.665 78.77 80.282 80.555 95.4 68.993 113.41z"/></g><g fill-rule="nonzero" transform="translate(39 17)"><path fill="#6936CF" d="M47.07 11.799H13.836a1.758 1.758 0 0 1-1.444-.857 1.779 1.779 0 0 1-.075-1.686l1.173-2.3 1.091-2.119L16.593.938A1.76 1.76 0 0 1 18.124 0h24.635a1.758 1.758 0 0 1 1.536.938l1.297 2.513.586 1.18.1.189.968 1.876.123.242.493.955.692 1.345a1.779 1.779 0 0 1-.053 1.684c-.3.517-.838.846-1.431.877z"/><path fill="#6D3EFF" d="M47.422 6.955H13.485l1.09-2.118h31.756l.967 1.876z"/><path fill="#180054" d="M25.872 0a137.063 137.063 0 0 0-1.255 4.837c-.164.697-.328 1.404-.48 2.118a87.794 87.794 0 0 0-.928 4.844h-9.384a1.758 1.758 0 0 1-1.437-.862 1.779 1.779 0 0 1-.07-1.681l1.172-2.3 1.091-2.119L16.593.938A1.76 1.76 0 0 1 18.124 0h7.748z" opacity=".5"/><path fill="#037AFF" d="M30.342 70.844C13.632 70.844.029 55.105.029 35.756a42.738 42.738 0 0 1 1.144-9.58l1.25-.184a41.344 41.344 0 0 0-1.174 9.764c0 18.683 13.074 33.885 29.14 33.885 16.065 0 29.133-15.202 29.133-33.885a41.59 41.59 0 0 0-1.296-9.8l1.267.19a43.384 43.384 0 0 1 1.173 9.621c-.018 19.338-13.614 35.077-30.324 35.077z"/><ellipse cx="30.342" cy="73.428" fill="#DBDAE0" rx="4.047" ry="4.071"/><path fill="#DBDAE0" d="M26.295 73.151h2.99v7.864a.476.476 0 0 1-.474.478h-2.036a.476.476 0 0 1-.475-.478V73.15h-.005z"/><path fill="#272727" d="M26.295 75.192h1.66c.09 0 .164.074.164.165v.82a.165.165 0 0 1-.165.166h-1.66v-1.18.03z"/></g><g fill-rule="nonzero" transform="translate(54 47)"><ellipse cx="28.14" cy="4.194" fill="#272727" rx="2.679" ry="4.062"/><ellipse cx="3.129" cy="4.194" fill="#272727" rx="2.679" ry="4.062"/><path fill="#272727" d="M28.14 18.828c-.041.186-.082.372-.135.552a14.433 14.433 0 0 1-4.995 7.8 6.027 6.027 0 0 1-.585.408c-1.228-2.226-3.837-3.762-6.855-3.762-3.018 0-5.597 1.518-6.832 3.726-.193-.132-.38-.276-.584-.42a14.435 14.435 0 0 1-4.937-7.746 8.23 8.23 0 0 1-.135-.552l25.058-.006z"/><path fill="#FFF" d="M28.42 17.166c-.06.56-.153 1.114-.28 1.662H3.123a14.057 14.057 0 0 1-.28-1.662 1.554 1.554 0 0 1 .293-1.22c.264-.345.66-.556 1.087-.58h22.811c.428.022.826.233 1.092.577.265.345.373.79.295 1.223z"/><path fill="#EF6FA9" d="M22.478 27.6a11.76 11.76 0 0 1-13.687-.036c1.234-2.208 3.831-3.726 6.832-3.726 3 0 5.627 1.518 6.855 3.762z"/></g></g></svg>